<svg xmlns="http://www.w3.org/2000/svg" width="1280" height="640" viewBox="0 0 1280 640" role="img">
  <title>ARC-Neuron LLMBuilder v1.0.0 social preview</title>
  <desc>Protected local-first LLM lifecycle baseline with benchmark receipts, candidate promotion, lineage and governance.</desc>
  <defs>
    <linearGradient id="bg" x1="0" y1="0" x2="1" y2="1">
      <stop offset="0%" stop-color="#050814"/>
      <stop offset="45%" stop-color="#071426"/>
      <stop offset="100%" stop-color="#02030a"/>
    </linearGradient>
    <radialGradient id="glowA" cx="72%" cy="42%" r="44%">
      <stop offset="0%" stop-color="#22d3ee" stop-opacity="0.52"/>
      <stop offset="38%" stop-color="#2563eb" stop-opacity="0.18"/>
      <stop offset="100%" stop-color="#02030a" stop-opacity="0"/>
    </radialGradient>
    <radialGradient id="glowB" cx="12%" cy="12%" r="52%">
      <stop offset="0%" stop-color="#2dd4bf" stop-opacity="0.18"/>
      <stop offset="100%" stop-color="#02030a" stop-opacity="0"/>
    </radialGradient>
    <linearGradient id="cyan" x1="0" y1="0" x2="1" y2="1">
      <stop offset="0%" stop-color="#38bdf8"/>
      <stop offset="55%" stop-color="#22d3ee"/>
      <stop offset="100%" stop-color="#5eead4"/>
    </linearGradient>
    <linearGradient id="whiteBlue" x1="0" y1="0" x2="1" y2="1">
      <stop offset="0%" stop-color="#ffffff"/>
      <stop offset="100%" stop-color="#bfdbfe"/>
    </linearGradient>
    <filter id="softGlow" x="-40%" y="-40%" width="180%" height="180%">
      <feGaussianBlur stdDeviation="8" result="blur"/>
      <feMerge><feMergeNode in="blur"/><feMergeNode in="SourceGraphic"/></feMerge>
    </filter>
    <filter id="textShadow" x="-10%" y="-40%" width="120%" height="180%">
      <feDropShadow dx="0" dy="3" stdDeviation="4" flood-color="#000000" flood-opacity="0.6"/>
    </filter>
    <pattern id="grid" width="40" height="40" patternUnits="userSpaceOnUse">
      <path d="M 40 0 L 0 0 0 40" fill="none" stroke="#1d4ed8" stroke-width="1" opacity="0.16"/>
    </pattern>
  </defs>

  <rect width="1280" height="640" fill="url(#bg)"/>
  <rect width="1280" height="640" fill="url(#grid)" opacity="0.55"/>
  <rect width="1280" height="640" fill="url(#glowA)"/>
  <rect width="1280" height="640" fill="url(#glowB)"/>

  <g stroke="#0ea5e9" stroke-width="2" fill="none" opacity="0.28">
    <path d="M740 100h120l28 28h132"/>
    <path d="M760 168h88l38 38h178"/>
    <path d="M780 482h96l42-42h190"/>
    <path d="M870 545h150l36-36h120"/>
    <circle cx="1020" cy="128" r="5" fill="#0ea5e9"/>
    <circle cx="1064" cy="206" r="5" fill="#0ea5e9"/>
    <circle cx="1108" cy="440" r="5" fill="#0ea5e9"/>
    <circle cx="1176" cy="509" r="5" fill="#0ea5e9"/>
  </g>

  <g transform="translate(64 70)" filter="url(#softGlow)">
    <path d="M72 0 144 42v84l-72 42L0 126V42L72 0Z" fill="none" stroke="url(#cyan)" stroke-width="13" stroke-linejoin="round"/>
    <path d="M42 126V54l30-18 30 18v72" fill="none" stroke="url(#cyan)" stroke-width="12" stroke-linecap="round" stroke-linejoin="round"/>
    <path d="M42 80h60M72 36v96" stroke="url(#cyan)" stroke-width="10" stroke-linecap="round"/>
  </g>

  <g filter="url(#textShadow)">
    <text x="250" y="126" fill="url(#whiteBlue)" font-family="Inter, Segoe UI, Arial, sans-serif" font-size="64" font-weight="900" letter-spacing="3">ARC-NEURON</text>
    <text x="250" y="198" fill="url(#cyan)" font-family="Inter, Segoe UI, Arial, sans-serif" font-size="64" font-weight="900" letter-spacing="2">LLMBUILDER</text>
    <line x1="66" y1="262" x2="334" y2="262" stroke="#0ea5e9" stroke-width="3" opacity="0.8"/>
    <text x="354" y="274" fill="#38bdf8" font-family="Inter, Segoe UI, Arial, sans-serif" font-size="34" font-weight="800" letter-spacing="4">v1.0.0</text>
    <line x1="470" y1="262" x2="684" y2="262" stroke="#0ea5e9" stroke-width="3" opacity="0.8"/>
  </g>

  <g filter="url(#textShadow)">
    <text x="66" y="342" fill="#ffffff" font-family="Inter, Segoe UI, Arial, sans-serif" font-size="36" font-weight="800">Protected Local-First LLM</text>
    <text x="66" y="390" fill="#ffffff" font-family="Inter, Segoe UI, Arial, sans-serif" font-size="36" font-weight="800">Lifecycle Baseline</text>
    <text x="66" y="446" fill="#cbd5e1" font-family="Inter, Segoe UI, Arial, sans-serif" font-size="25" font-weight="600">Benchmark receipts • Candidate promotion</text>
    <text x="66" y="482" fill="#cbd5e1" font-family="Inter, Segoe UI, Arial, sans-serif" font-size="25" font-weight="600">Lineage • Governed model improvement</text>
  </g>

  <g transform="translate(838 282)" filter="url(#softGlow)">
    <g stroke="url(#cyan)" stroke-width="4" fill="none" opacity="0.95" stroke-linecap="round">
      <path d="M0 0 C-80-62 -130-98 -214-104"/>
      <path d="M0 0 C-84 20 -132 46 -210 120"/>
      <path d="M0 0 C-40-104 -26-176 -78-245"/>
      <path d="M0 0 C88-68 122-112 210-158"/>
      <path d="M0 0 C112 6 170 32 262 96"/>
      <path d="M0 0 C52 86 72 144 132 226"/>
      <path d="M0 0 C-20 92 -12 156 -46 244"/>
    </g>
    <g stroke="#60a5fa" stroke-width="2" fill="none" opacity="0.55">
      <path d="M-214-104c-38-4-72-26-102-58"/>
      <path d="M-210 120c-30 32-74 54-120 64"/>
      <path d="M210-158c40-18 80-22 128-16"/>
      <path d="M262 96c38 24 78 40 128 46"/>
      <path d="M132 226c28 34 48 72 62 112"/>
    </g>
    <circle cx="0" cy="0" r="68" fill="#0f172a" stroke="url(#cyan)" stroke-width="5"/>
    <circle cx="0" cy="0" r="44" fill="#0ea5e9" opacity="0.22"/>
    <circle cx="0" cy="0" r="12" fill="#e0f2fe"/>
    <g fill="#67e8f9">
      <circle cx="-214" cy="-104" r="6"/>
      <circle cx="-210" cy="120" r="6"/>
      <circle cx="-78" cy="-245" r="5"/>
      <circle cx="210" cy="-158" r="6"/>
      <circle cx="262" cy="96" r="6"/>
      <circle cx="132" cy="226" r="6"/>
      <circle cx="-46" cy="244" r="5"/>
    </g>
  </g>

  <g font-family="Inter, Segoe UI, Arial, sans-serif" font-size="18" font-weight="800" fill="#e2e8f0">
    <g transform="translate(66 546)">
      <rect width="226" height="52" rx="16" fill="#071426" stroke="#0ea5e9" opacity="0.92"/>
      <text x="23" y="34">BENCHMARK RECEIPTS</text>
    </g>
    <g transform="translate(314 546)">
      <rect width="226" height="52" rx="16" fill="#071426" stroke="#22d3ee" opacity="0.92"/>
      <text x="21" y="34">CANDIDATE PROMOTION</text>
    </g>
    <g transform="translate(562 546)">
      <rect width="164" height="52" rx="16" fill="#071426" stroke="#5eead4" opacity="0.92"/>
      <text x="24" y="34">LINEAGE</text>
    </g>
    <g transform="translate(748 546)">
      <rect width="190" height="52" rx="16" fill="#071426" stroke="#5eead4" opacity="0.92"/>
      <text x="26" y="34">GOVERNANCE</text>
    </g>
  </g>

  <rect y="604" width="1280" height="36" fill="#020617" opacity="0.72"/>
  <text x="66" y="628" fill="#93c5fd" font-family="Inter, Segoe UI, Arial, sans-serif" font-size="18" font-weight="700">GareBear99/arc-neuron-llmbuilder-v1.0.0</text>
  <text x="1030" y="628" fill="#5eead4" font-family="Inter, Segoe UI, Arial, sans-serif" font-size="18" font-weight="700">Python • MIT • Local-first</text>
</svg>