<?xml version="1.0" encoding="UTF-8"?>
<svg width="1024" height="1024" viewBox="0 0 1024 1024" fill="none" xmlns="http://www.w3.org/2000/svg" role="img" aria-labelledby="title desc">
  <title id="title">ARC Control</title>
  <desc id="desc">Original ARC Core module glyph for ARC Control.</desc>
  <defs>
    <filter id="glow" x="-40%" y="-40%" width="180%" height="180%">
      <feGaussianBlur stdDeviation="10" result="blur"/>
      <feMerge>
        <feMergeNode in="blur"/>
        <feMergeNode in="SourceGraphic"/>
      </feMerge>
    </filter>
    <radialGradient id="halo" cx="50%" cy="50%" r="50%">
      <stop offset="0%" stop-color="#FF6A00" stop-opacity="0.30"/>
      <stop offset="55%" stop-color="#FF6A00" stop-opacity="0.10"/>
      <stop offset="100%" stop-color="#FF6A00" stop-opacity="0"/>
    </radialGradient>
    <style>
      .arc-stroke {
        stroke: #FF6A00;
        stroke-width: 34;
        stroke-linecap: round;
        stroke-linejoin: round;
        filter: url(#glow);
      }
      .arc-thin {
        stroke: #FF6A00;
        stroke-width: 18;
        stroke-linecap: round;
        stroke-linejoin: round;
        filter: url(#glow);
      }
      .arc-dot {
        fill: #FF6A00;
        filter: url(#glow);
      }
      .arc-fill {
        fill: #FF6A00;
        filter: url(#glow);
      }
      .arc-faint {
        stroke: #FF6A00;
        stroke-width: 10;
        stroke-linecap: round;
        stroke-linejoin: round;
        opacity: 0.45;
      }
    </style>
  </defs>
  <rect width="1024" height="1024" rx="128" fill="#05070A"/>
  <circle cx="512" cy="512" r="390" fill="url(#halo)"/>
  <g transform="translate(0 0)">

    <circle class="arc-thin" cx="512" cy="512" r="238"/>
    <circle class="arc-thin" cx="512" cy="512" r="142"/>
    <circle class="arc-thin" cx="512" cy="512" r="52"/>
    <path class="arc-stroke" d="M512 278V214"/>
    <path class="arc-stroke" d="M512 810V746"/>
    <path class="arc-stroke" d="M214 512H278"/>
    <path class="arc-stroke" d="M746 512H810"/>
    <path class="arc-thin" d="M608 416L512 512L548 654"/>
    <path class="arc-thin" d="M416 608L512 512"/>
    <circle class="arc-dot" cx="512" cy="512" r="24"/>
    <path class="arc-faint" d="M338 338A246 246 0 0 1 686 338"/>
    <path class="arc-faint" d="M686 686A246 246 0 0 1 338 686"/>
    <path class="arc-fill" d="M604 396L654 362L636 420Z"/>

  </g>
</svg>
